<svg width="24" height="24" viewBox="0 0 24 24" fill="none" xmlns="http://www.w3.org/2000/svg">
<path d="M14.7082 11.7857C14.7082 10.2154 13.4275 8.9347 11.8572 8.9347C10.2869 8.9347 9.00617 10.2154 9.00617 11.7857C9.00617 13.356 10.2869 14.6367 11.8572 14.6367C13.4275 14.6367 14.7082 13.356 14.7082 11.7857ZM16.245 11.7857C16.245 14.2135 14.285 16.1736 11.8572 16.1736C9.42937 16.1736 7.4693 14.2135 7.4693 11.7857C7.4693 9.35789 9.42937 7.39783 11.8572 7.39783C14.285 7.39783 16.245 9.35789 16.245 11.7857ZM17.4478 7.21964C17.4478 7.78761 16.9912 8.24422 16.4232 8.24422C15.8553 8.24422 15.3987 7.78761 15.3987 7.21964C15.3987 6.65167 15.8553 6.19506 16.4232 6.19506C16.9912 6.19506 17.4478 6.65167 17.4478 7.21964ZM11.8572 4.76956C10.6099 4.76956 7.93704 4.66933 6.81223 5.1148C6.42245 5.27071 6.13289 5.46004 5.8322 5.76073C5.53151 6.06142 5.34219 6.35098 5.18627 6.74076C4.7408 7.86557 4.84103 10.5384 4.84103 11.7857C4.84103 13.033 4.7408 15.7058 5.18627 16.8306C5.34219 17.2204 5.53151 17.51 5.8322 17.8107C6.13289 18.1114 6.42245 18.3007 6.81223 18.4566C7.93704 18.9021 10.6099 18.8018 11.8572 18.8018C13.1045 18.8018 15.7773 18.9021 16.9021 18.4566C17.2919 18.3007 17.5815 18.1114 17.8821 17.8107C18.1828 17.51 18.3722 17.2204 18.5281 16.8306C18.9735 15.7058 18.8733 13.033 18.8733 11.7857C18.8733 10.5384 18.9735 7.86557 18.5281 6.74076C18.3722 6.35098 18.1828 6.06142 17.8821 5.76073C17.5815 5.46004 17.2919 5.27071 16.9021 5.1148C15.7773 4.66933 13.1045 4.76956 11.8572 4.76956ZM20.4102 11.7857C20.4102 12.9662 20.4213 14.1356 20.3545 15.316C20.2877 16.6859 19.9759 17.8998 18.9735 18.9021C17.9712 19.9044 16.7573 20.2162 15.3875 20.283C14.207 20.3498 13.0377 20.3387 11.8572 20.3387C10.6767 20.3387 9.50732 20.3498 8.32683 20.283C6.95701 20.2162 5.74311 19.9044 4.7408 18.9021C3.7385 17.8998 3.42667 16.6859 3.35985 15.316C3.29303 14.1356 3.30416 12.9662 3.30416 11.7857C3.30416 10.6052 3.29303 9.43585 3.35985 8.25536C3.42667 6.88554 3.7385 5.67164 4.7408 4.66933C5.74311 3.66702 6.95701 3.35519 8.32683 3.28837C9.50732 3.22155 10.6767 3.23269 11.8572 3.23269C13.0377 3.23269 14.207 3.22155 15.3875 3.28837C16.7573 3.35519 17.9712 3.66702 18.9735 4.66933C19.9759 5.67164 20.2877 6.88554 20.3545 8.25536C20.4213 9.43585 20.4102 10.6052 20.4102 11.7857Z" fill="#FFFFFF"/>
</svg>
